<?xml version="1.0" encoding="UTF-8" standalone="yes"?>
<svg
   width="512"
   height="512"
   viewBox="0 0 135.46666 135.46667"
   version="1.1"
   xmlns="http://www.w3.org/2000/svg"
   id="hrushikesh_joshi_logo_light">
  <g id="layer1">
    <path
       d="m 72.117102,106.11086 q -7.586151,0 -10.837359,-2.98027 -3.251208,-2.98028 -3.251208,-8.534422 0,-2.980274 0.541868,-10.566425 0.541868,-7.586152 1.219203,-17.068842 H 35.676481 l -2.70934,37.117959 q -0.135467,1.08373 -0.541868,1.6256 -0.406401,0.4064 -1.625604,0.4064 h -7.450685 q -7.586152,0 -10.83736,-2.98027 -3.2512075,-2.98028 -3.2512075,-8.534422 0,-2.70934 0.4064009,-9.211756 0.4064006,-6.637882 1.0837356,-15.036836 0.677335,-8.398954 1.35467,-17.746176 0.677335,-9.347223 1.35467,-17.61071 0.677335,-8.263486 1.083736,-14.494968 0.406401,-6.231482 0.406401,-8.534421 0,-2.0320049 2.167472,-2.0320049 h 7.450685 q 8.263487,0 11.108294,3.5221419 2.844806,3.522142 2.844806,10.430959 0,1.083736 -0.406401,7.721618 -0.406401,6.502416 -1.083736,15.714172 h 24.248593 q 0.406401,-5.960548 0.812802,-11.650162 0.541868,-5.689614 0.812802,-10.430958 0.406401,-4.741345 0.541868,-8.12802 0.270934,-3.522142 0.270934,-5.147746 0,-2.0320049 2.167471,-2.0320049 h 7.450685 q 8.263487,0 11.108294,3.5221419 2.844807,3.522142 2.844807,10.430959 0,0.677335 -0.270934,4.334943 -0.135467,3.657609 -0.541868,9.211756 -0.406401,5.554147 -0.948269,12.462964 -0.406401,6.773349 -0.948269,13.9531 -0.406401,7.179751 -0.948269,14.088568 -0.406401,6.773349 -0.812802,12.327496 -0.406401,5.554147 -0.677335,9.347223 -0.270934,3.657613 -0.406401,4.470413 -0.135467,1.08373 -0.541868,1.6256 -0.406401,0.4064 -1.625604,0.4064 z M 103.27448,33.63602 q 0,-1.219203 0.4064,-1.625604 0.4064,-0.406401 2.57388,-0.406401 h 4.87681 q 3.38667,0 5.96055,0.948269 2.70934,0.812802 4.47041,2.167472 1.89653,1.219203 2.8448,2.844807 0.94827,1.625604 0.94827,3.251208 0,0.812802 -0.27093,4.470411 -0.13547,3.522142 -0.54187,8.940822 -0.4064,5.283212 -0.94827,11.785628 -0.4064,6.366949 -0.94827,13.004832 -0.4064,6.502415 -0.94827,12.59843 -0.4064,6.096015 -0.67733,10.566426 -0.67734,9.61816 -3.11574,15.44324 -2.30294,5.96055 -5.68962,9.21175 -3.38667,3.38668 -7.58615,4.47041 -4.19947,1.21921 -8.669886,1.21921 -3.928543,0 -7.857085,-0.81281 -4.06401,-0.67733 -7.315218,-2.16747 -3.251208,-1.49013 -5.283213,-3.79307 -2.032005,-2.30294 -2.032005,-5.41868 0,-3.25121 2.032005,-5.14775 1.896538,-1.89654 4.605878,-2.84481 2.573873,-0.94826 5.147746,-1.2192 2.438406,-0.27093 3.657609,-0.27093 0.4064,0 0.812801,0.67733 0.270934,0.8128 0.812802,1.62561 0.406401,0.94827 1.219203,1.6256 0.812802,0.8128 2.302939,0.8128 1.625604,0 2.438406,-1.35467 0.948269,-1.2192 1.490137,-4.19947 0.541868,-2.98028 0.948269,-7.85709 0.406401,-5.012279 0.812802,-12.462964 z m -1.35467,-18.01711 q 0,-5.41868 3.92854,-8.5344208 3.92855,-3.1157409 10.56643,-3.1157409 5.82508,0 8.39895,2.4384059 2.70934,2.302939 2.70934,6.2314818 0,5.012279 -3.79307,8.398954 -3.65761,3.251208 -10.83736,3.251208 -10.97283,0 -10.97283,-8.669888 z"
       id="text"
       style="font-size:135.467px;font-family:PoetsenOne;fill:#18181b;stroke-width:135.467;paint-order:fill markers stroke"
       aria-label="Hrushikesh Joshi Logo Light" />
  </g>
</svg>
