<?xml version="1.0" encoding="UTF-8" standalone="no"?>
<!-- Created with Inkscape (http://www.inkscape.org/) -->

<svg
   width="500"
   height="500"
   viewBox="0 0 132.29166 132.29167"
   version="1.1"
   id="svg1"
   xmlns="http://www.w3.org/2000/svg"
   xmlns:svg="http://www.w3.org/2000/svg">
  <defs
     id="defs1" />
  <g
     id="layer1">
    <path
       d="M 1.0728836e-6,102.97898 16.251588,4.9430923 H 39.740724 L 33.358522,43.170509 H 71.520143 L 77.902345,4.9430923 H 101.32568 L 85.074098,102.97898 H 61.650758 L 68.296144,62.777687 H 30.134523 L 23.489137,102.97898 Z M 104.78912,31.656227 h 22.83118 l -12.43542,75.073123 q -1.38172,8.22448 -5.46106,13.42236 -4.07935,5.26367 -10.593143,7.76392 -6.513794,2.56604 -15.198852,2.56604 h -7.040161 l 2.895019,-17.50171 h 3.816162 q 4.210938,0 6.316407,-1.84229 2.039672,-1.84228 2.697631,-5.85583 z m 12.63282,-7.566528 q -5.19788,0 -8.15869,-3.223999 -2.89502,-3.223999 -2.17127,-8.0271 0.78955,-4.8688963 4.8031,-8.0270995 4.07935,-3.223999 9.27722,-3.223999 5.26368,0 8.15869,3.223999 2.96082,3.1582032 2.17127,8.0270995 -0.72376,4.803101 -4.8031,8.0271 -4.07935,3.223999 -9.27722,3.223999 z"
       id="text4"
       style="font-style:italic;font-weight:800;font-size:134.75px;font-family:'Inter 24pt';-inkscape-font-specification:'Inter 24pt, Ultra-Bold Italic';fill:#fafafa;stroke-width:11.2292"
       aria-label="Hj" />
  </g>
</svg>
